# xmcd
#
# Track frame offsets:
#	150
#	12825
#	25388
#	37688
#	50026
#	63395
#	72845
#	83008
#	96621
#	107590
#	120340
#	132959
#	142535
#	155435
#	165739
#	175958
#	189112
#	200887
#	213319
#	224494
#	234469
#	245569
#	258094
#	270732
#	283839
#	293702
#	304840
#
# Disc length: 4234 seconds
#
# Revision: 1
# Processed by: cddbd v1.5.2PL0 Copyright (c) Steve Scherf et al.
# Submitted via: audiograbber 1.83.01
#
DISCID=8510881b
DTITLE=James Brown and The Famous Flames - Tell Me What You're Gonna Do and Shout &
DTITLE=Shimmy 
DYEAR=2013
DGENRE=R&B
TTITLE0=Just You And Me, Darling       King 5547   1961
TTITLE1=I Love You, Yes I Do              King 5547   1961
TTITLE2=I Don't Mind      King 5466   1960
TTITLE3=Come Over Here        King LP 743   1961
TTITLE4=The Bells       King 5423   1960
TTITLE5=Love Don't Love Nobody      King 5466   1960
TTITLE6=Dancin' Little Thing      King LP 743   1961
TTITLE7=Lost Someone      King 5573   1961
TTITLE8=And I Do Just What I Want       King 5423   1960
TTITLE9=So Long     King LP 780   1962
TTITLE10=You Don't Have To Go            King LP 780   1962
TTITLE11=Tell Me What You're Gonna Do       King LP 780   1962
TTITLE12=Shout and Shimmy        King 5627   1962
TTITLE13=Good Good Lovin'     King LP 780   1962
TTITLE14=Have Mercy Baby       King LP 780   1962
TTITLE15=Begging Begging        King LP 780   1962
TTITLE16=Just Won't Do Right       King LP 780   1962
TTITLE17=I Was You     King LP 780   1962
TTITLE18=There Must Be A Reason      Federal 12348   1959
TTITLE19=Fine Old Foxy Self         King LP 635   1959
TTITLE20=I've Got To Change      Federal 12352   1959
TTITLE21=Gonna Try    Federal 12293   1957
TTITLE22=I Want You So Bad       Federal 12348   1959
TTITLE23=It Hurts To Tell You    Federal 12352   1959
TTITLE24=Hold It      INSTRUMENTAL      KIng 5438   1961          
TTITLE25=I Won't Plead No More         King LP 635   1959
TTITLE26=Don't Let It Happen To Me         Federal 12361   1959
EXTD=Soul Jam Records 600822
EXTT0=
EXTT1=
EXTT2=
EXTT3=
EXTT4=
EXTT5=
EXTT6=
EXTT7=
EXTT8=
EXTT9=
EXTT10=
EXTT11=
EXTT12=
EXTT13=
EXTT14=
EXTT15=
EXTT16=
EXTT17=
EXTT18=
EXTT19=
EXTT20=
EXTT21=
EXTT22=
EXTT23=
EXTT24=
EXTT25=
EXTT26=
PLAYORDER=
